# xmcd
#
# Track frame offsets:
#	150
#	17617
#	30855
#	45780
#	65722
#	83140
#	101355
#	117540
#	134417
#	148002
#	165442
#	182659
#
# Disc length: 2673 seconds
#
# Revision: 6
# Processed by: cddbd v1.5.2PL0 Copyright (c) Steve Scherf et al.
# Submitted via: EZCDAudioConverter 7.1.8.1
#
DISCID=920a6f0c
DTITLE=ZEZÉ DI CAMARGO and LUCIANO - CORAÇÃO NA CONTRA MÃO [CD 850.232_2-476417)
DTITLE=COLUMBIA SONY MUSIC
DYEAR=1992
DGENRE=SERTANEJO
TTITLE0=CORAÇÃO ESTÁ EM PEDAÇOS (BY GILMAR SINISTRO)
TTITLE1=MUDA DE VIDA (BY GILMAR SINISTRO)
TTITLE2=CARA OU COROA (A CARA O CRUZ) (BY GILMAR SINISTRO)
TTITLE3=VOANDO SEM ASAS (BY GILMAR SINISTRO)
TTITLE4=LEVA MINHA TIMIDEZ (BY GILMAR SINISTRO)
TTITLE5=GAROTO DE RUA (BY GILMAR SINISTRO)
TTITLE6=CORAÇÃO NA CONTRA-MÃO (BY GILMAR SINISTRO)
TTITLE7=ME LEVA PRA CASA (BY GILMAR SINISTRO)
TTITLE8=NÃO TEM JEITO NÃO (BY GILMAR SINISTRO)
TTITLE9=POR DEUS (BY GILMAR SINISTRO)
TTITLE10=LINDA, LINDA (BY GILMAR SINISTRO)
TTITLE11=CAMA DE CAPIM (BY GILMAR SINISTRO)
EXTD=
EXTT0=
EXTT1=
EXTT2=
EXTT3=
EXTT4=
EXTT5=
EXTT6=
EXTT7=
EXTT8=
EXTT9=
EXTT10=
EXTT11=
PLAYORDER=
